<?xml version="1.0" encoding="UTF-8"?>
<!DOCTYPE svg PUBLIC "-//W3C//DTD SVG 1.1//EN" "http://www.w3.org/Graphics/SVG/1.1/DTD/svg11.dtd">
<svg xmlns="http://www.w3.org/2000/svg" version="1.1" width="512px" height="512px" style="shape-rendering:geometricPrecision; text-rendering:geometricPrecision; image-rendering:optimizeQuality; fill-rule:evenodd; clip-rule:evenodd" xmlns:xlink="http://www.w3.org/1999/xlink">
<g><path style="opacity:0.98" fill="#000000" d="M 217.5,-0.5 C 304.167,-0.5 390.833,-0.5 477.5,-0.5C 494.762,4.42962 506.096,15.4296 511.5,32.5C 511.5,166.833 511.5,301.167 511.5,435.5C 507.808,448.367 500.141,458.201 488.5,465C 442.429,480.635 396.429,496.135 350.5,511.5C 344.167,511.5 337.833,511.5 331.5,511.5C 312.541,506.368 301.375,494.035 298,474.5C 297.5,465.506 297.334,456.506 297.5,447.5C 270.831,447.667 244.165,447.5 217.5,447C 190.569,440.069 174.736,422.902 170,395.5C 169.333,381.5 169.333,367.5 170,353.5C 174.703,341.039 183.203,337.539 195.5,343C 198.433,345.264 200.6,348.098 202,351.5C 202.333,365.167 202.667,378.833 203,392.5C 206.165,405.996 214.665,413.496 228.5,415C 251.498,415.5 274.498,415.667 297.5,415.5C 297.012,301.47 297.512,187.47 299,73.5C 302.354,62.9578 308.521,54.4578 317.5,48C 332.273,42.0755 347.273,36.7421 362.5,32C 317.833,31.3333 273.167,31.3333 228.5,32C 214.691,33.4755 206.191,40.9755 203,54.5C 202.667,68.1667 202.333,81.8333 202,95.5C 196.361,106.691 187.861,109.525 176.5,104C 173.193,101.222 171.026,97.7217 170,93.5C 169.333,79.5 169.333,65.5 170,51.5C 174.923,24.082 190.756,6.74871 217.5,-0.5 Z M 464.5,32.5 C 472.737,31.0276 477.571,34.3609 479,42.5C 479.991,171.868 479.658,301.201 478,430.5C 476.749,433.381 474.583,435.214 471.5,436C 429.5,450 387.5,464 345.5,478C 338.346,479.84 333.513,477.34 331,470.5C 330.333,341.167 330.333,211.833 331,82.5C 331.883,79.8976 333.383,77.7309 335.5,76C 378.709,61.7642 421.709,47.2642 464.5,32.5 Z"/></g>
<g><path style="opacity:0.976" fill="#000000" d="M -0.5,229.5 C -0.5,225.5 -0.5,221.5 -0.5,217.5C 1.6467,213.189 4.98004,210.022 9.5,208C 65.8333,207.667 122.167,207.333 178.5,207C 160.333,188.833 142.167,170.667 124,152.5C 118.559,138.037 123.392,129.704 138.5,127.5C 142.725,126.986 146.391,128.153 149.5,131C 176.667,158.167 203.833,185.333 231,212.5C 235.667,219.833 235.667,227.167 231,234.5C 203.833,261.667 176.667,288.833 149.5,316C 140.058,321.561 131.558,320.394 124,312.5C 120.667,306.5 120.667,300.5 124,294.5C 142.167,276.333 160.333,258.167 178.5,240C 122.167,239.667 65.8333,239.333 9.5,239C 4.98004,236.978 1.6467,233.811 -0.5,229.5 Z"/></g>
</svg>
